<svg width="100" height="74" viewBox="0 0 100 74" fill="none" xmlns="http://www.w3.org/2000/svg">
<path d="M48.5751 0.228804L68.4381 35.3004C68.6129 35.61 68.3968 36 68.052 36H59.603C56.7568 36 54.1195 34.4549 52.6526 31.9284L43.6792 16.4749C41.8918 13.3948 41.9573 9.52957 43.8516 6.51739L47.8126 0.211189C47.9947 -0.0782017 48.4051 -0.0681359 48.5727 0.228804H48.5751Z" fill="#657172"/>
<path d="M46.0081 21.6562C46.0785 21.5027 45.9862 21.3215 45.8235 21.2963C39.9974 20.3879 36.5926 21.777 34.3268 23.7473C33.115 24.7992 31.5 27.2905 31.5 29.6081C31.5 33.1387 34.3195 35.9999 37.7972 35.9999C41.2749 35.9999 44.0944 33.1387 44.0944 29.6081C44.0944 29.5175 44.092 29.4294 44.0871 29.3414H44.0944C44.0944 27.3081 44.8083 24.2582 46.0056 21.6587L46.0081 21.6562Z" fill="#657172"/>
<path d="M19.0629 67.1714C18.8011 66.2997 18.5036 65.4037 18.1704 64.4835C17.8611 63.5634 17.5517 62.6432 17.2423 61.723H7.60374C7.29435 62.6432 6.97307 63.5634 6.63988 64.4835C6.3305 65.4037 6.04491 66.2997 5.78313 67.1714H0C0.928156 64.4593 1.80872 61.9531 2.64168 59.6527C3.47464 57.3523 4.2838 55.185 5.06916 53.151C5.87832 51.1169 6.66368 49.1918 7.42525 47.3757C8.21061 45.5354 9.01977 43.7435 9.85273 42H15.1718C15.9809 43.7435 16.7782 45.5354 17.5636 47.3757C18.3489 49.1918 19.1343 51.1169 19.9197 53.151C20.7288 55.185 21.5499 57.3523 22.3828 59.6527C23.2158 61.9531 24.0964 64.4593 25.0245 67.1714H19.0629ZM12.3873 47.7026C12.2683 48.0658 12.0898 48.5622 11.8518 49.1918C11.6139 49.8214 11.3402 50.5479 11.0308 51.3712C10.7214 52.1945 10.3763 53.1025 9.99553 54.0953C9.63855 55.0882 9.26966 56.1294 8.88888 57.2191H15.9215C15.5407 56.1294 15.1718 55.0882 14.8148 54.0953C14.4578 53.1025 14.1127 52.1945 13.7795 51.3712C13.4702 50.5479 13.1965 49.8214 12.9585 49.1918C12.7205 48.5622 12.5301 48.0658 12.3873 47.7026ZM32.02 57.0011C32.02 60.028 33.2218 61.5414 35.6255 61.5414C36.1729 61.5414 36.6846 61.4688 37.1606 61.3235C37.6365 61.1782 38.0411 61.0087 38.3743 60.815V52.1703C38.1125 52.1218 37.8031 52.0855 37.4461 52.0613C37.0892 52.0129 36.6727 51.9886 36.1967 51.9886C34.7926 51.9886 33.7454 52.4608 33.0552 53.4052C32.3651 54.3496 32.02 55.5482 32.02 57.0011ZM43.6933 64.7741C43.6933 67.8978 42.908 70.2104 41.3373 71.7117C39.7903 73.2372 37.3866 74 34.1262 74C32.9839 74 31.8415 73.891 30.6992 73.6731C29.5568 73.4794 28.4978 73.213 27.522 72.874L28.4502 68.3337C29.2831 68.6727 30.1518 68.9391 31.0561 69.1328C31.9843 69.3265 33.0314 69.4234 34.1976 69.4234C35.7207 69.4234 36.7917 69.0844 37.4104 68.4064C38.053 67.7283 38.3743 66.8566 38.3743 65.7911V65.101C37.8031 65.3674 37.2082 65.5732 36.5894 65.7185C35.9944 65.8396 35.3399 65.9001 34.626 65.9001C32.0319 65.9001 30.0447 65.1252 28.6644 63.5755C27.284 62.0015 26.5939 59.8101 26.5939 57.0011C26.5939 55.5967 26.808 54.3254 27.2364 53.1873C27.6648 52.025 28.2836 51.0322 29.0927 50.2089C29.9257 49.3855 30.9371 48.756 32.1271 48.3201C33.317 47.86 34.6617 47.63 36.161 47.63C36.8036 47.63 37.458 47.6663 38.1244 47.7389C38.8146 47.7874 39.4928 47.86 40.1592 47.9569C40.8256 48.0537 41.4562 48.1748 42.0512 48.3201C42.67 48.4412 43.2174 48.5743 43.6933 48.7196V64.7741ZM66.2463 57.5823C66.2463 59.0836 66.0321 60.4639 65.6037 61.723C65.1753 62.958 64.5565 64.0235 63.7474 64.9194C62.9382 65.7911 61.9625 66.4692 60.8201 66.9535C59.7016 67.4378 58.4402 67.6799 57.0361 67.6799C55.6558 67.6799 54.3944 67.4378 53.2521 66.9535C52.1335 66.4692 51.1697 65.7911 50.3605 64.9194C49.5508 64.0235 48.9202 62.958 48.468 61.723C48.0158 60.4639 47.7897 59.0836 47.7897 57.5823C47.7897 56.081 48.0158 54.7128 48.468 53.4779C48.944 52.2429 49.5865 51.1896 50.3962 50.3178C51.2292 49.4461 52.2049 48.7681 53.3235 48.2838C54.4658 47.7995 55.7034 47.5573 57.0361 47.5573C58.3926 47.5573 59.6302 47.7995 60.7487 48.2838C61.8911 48.7681 62.8668 49.4461 63.676 50.3178C64.4851 51.1896 65.1158 52.2429 65.568 53.4779C66.0202 54.7128 66.2463 56.081 66.2463 57.5823ZM60.8201 57.5823C60.8201 55.9115 60.4869 54.6039 59.8206 53.6595C59.178 52.6909 58.2498 52.2066 57.0361 52.2066C55.8223 52.2066 54.8823 52.6909 54.2159 53.6595C53.5495 54.6039 53.2164 55.9115 53.2164 57.5823C53.2164 59.2531 53.5495 60.5849 54.2159 61.5778C54.8823 62.5463 55.8223 63.0306 57.0361 63.0306C58.2498 63.0306 59.178 62.5463 59.8206 61.5778C60.4869 60.5849 60.8201 59.2531 60.8201 57.5823ZM81.6828 52.8604C81.2068 52.7393 80.6476 52.6182 80.005 52.4972C79.3624 52.3519 78.6722 52.2792 77.9345 52.2792C77.6013 52.2792 77.1967 52.3155 76.7207 52.3882C76.2685 52.4366 75.9235 52.4972 75.6855 52.5698V67.1714H70.3664V49.0829C71.3184 48.7439 72.4369 48.4291 73.7221 48.1385C75.031 47.8237 76.4827 47.6663 78.0773 47.6663C78.3629 47.6663 78.7079 47.6905 79.1125 47.7389C79.5171 47.7631 79.9217 47.8116 80.3263 47.8842C80.7308 47.9327 81.1354 48.0053 81.54 48.1022C81.9446 48.1748 82.2897 48.2717 82.5753 48.3927L81.6828 52.8604ZM92.2535 63.3939C92.777 63.3939 93.2768 63.3818 93.7528 63.3575C94.2288 63.3333 94.6096 63.297 94.8951 63.2486V59.1442C94.6809 59.0957 94.3597 59.0473 93.9313 58.9989C93.5029 58.9504 93.1102 58.9262 92.7533 58.9262C92.2535 58.9262 91.7775 58.9625 91.3253 59.0352C90.8969 59.0836 90.5161 59.1926 90.183 59.3621C89.8498 59.5316 89.588 59.7616 89.3976 60.0522C89.2072 60.3428 89.112 60.706 89.112 61.1419C89.112 61.9894 89.3857 62.5827 89.9331 62.9217C90.5042 63.2365 91.2777 63.3939 92.2535 63.3939ZM91.8251 47.5573C93.3958 47.5573 94.7047 47.7389 95.7519 48.1022C96.799 48.4654 97.632 48.986 98.2508 49.664C98.8933 50.342 99.3455 51.1653 99.6073 52.1339C99.8691 53.1025 100 54.1801 100 55.3666V66.6266C99.2384 66.7961 98.1794 66.9898 96.8228 67.2077C95.4663 67.4499 93.8242 67.5709 91.8965 67.5709C90.6827 67.5709 89.5761 67.462 88.5765 67.244C87.6008 67.0261 86.7559 66.675 86.042 66.1907C85.328 65.6822 84.7806 65.0284 84.3998 64.2293C84.0191 63.4302 83.8287 62.4495 83.8287 61.2872C83.8287 60.1733 84.0429 59.2289 84.4712 58.454C84.9234 57.6792 85.5184 57.0617 86.2561 56.6016C86.9939 56.1415 87.8388 55.8146 88.7907 55.6209C89.7427 55.403 90.7303 55.294 91.7537 55.294C92.4438 55.294 93.0507 55.3303 93.5743 55.403C94.1217 55.4514 94.562 55.524 94.8951 55.6209V55.1124C94.8951 54.1922 94.6215 53.4536 94.0741 52.8967C93.5267 52.3398 92.5748 52.0613 91.2182 52.0613C90.3139 52.0613 89.4214 52.1339 88.5408 52.2792C87.6603 52.4003 86.8987 52.5819 86.2561 52.8241L85.5779 48.4654C85.8873 48.3685 86.2681 48.2717 86.7202 48.1748C87.1962 48.0537 87.7079 47.9569 88.2552 47.8842C88.8026 47.7874 89.3738 47.7147 89.9688 47.6663C90.5875 47.5936 91.2063 47.5573 91.8251 47.5573Z" fill="#657172"/>
</svg>
