<svg width="154" height="43" viewBox="0 0 154 43" fill="none" xmlns="http://www.w3.org/2000/svg">
<path d="M17.0751 0.228804L36.9381 35.3004C37.1129 35.61 36.8968 36 36.552 36H28.103C25.2568 36 22.6195 34.4549 21.1526 31.9284L12.1792 16.4749C10.3918 13.3948 10.4573 9.52957 12.3516 6.51739L16.3126 0.211189C16.4947 -0.0782017 16.9051 -0.0681359 17.0727 0.228804H17.0751Z" fill="#657172"/>
<path d="M14.5081 21.6563C14.5785 21.5028 14.4862 21.3216 14.3235 21.2964C8.49745 20.388 5.09264 21.7771 2.82681 23.7474C1.61497 24.7993 0 27.2906 0 29.6082C0 33.1388 2.81953 36 6.29719 36C9.77486 36 12.5944 33.1388 12.5944 29.6082C12.5944 29.5176 12.592 29.4295 12.5871 29.3415H12.5944C12.5944 27.3082 13.3083 24.2583 14.5056 21.6588L14.5081 21.6563Z" fill="#657172"/>
<path d="M62.0629 36.1714C61.8011 35.2997 61.5036 34.4037 61.1704 33.4835C60.8611 32.5634 60.5517 31.6432 60.2423 30.723H50.6037C50.2944 31.6432 49.9731 32.5634 49.6399 33.4835C49.3305 34.4037 49.0449 35.2997 48.7831 36.1714H43C43.9282 33.4593 44.8087 30.9531 45.6417 28.6527C46.4746 26.3523 47.2838 24.185 48.0692 22.151C48.8783 20.1169 49.6637 18.1918 50.4252 16.3757C51.2106 14.5354 52.0198 12.7435 52.8527 11H58.1718C58.9809 12.7435 59.7782 14.5354 60.5636 16.3757C61.3489 18.1918 62.1343 20.1169 62.9197 22.151C63.7288 24.185 64.5499 26.3523 65.3828 28.6527C66.2158 30.9531 67.0964 33.4593 68.0245 36.1714H62.0629ZM55.3873 16.7026C55.2683 17.0658 55.0898 17.5622 54.8518 18.1918C54.6139 18.8214 54.3402 19.5479 54.0308 20.3712C53.7214 21.1945 53.3763 22.1025 52.9955 23.0953C52.6385 24.0882 52.2697 25.1294 51.8889 26.2191H58.9215C58.5407 25.1294 58.1718 24.0882 57.8148 23.0953C57.4578 22.1025 57.1127 21.1945 56.7795 20.3712C56.4702 19.5479 56.1965 18.8214 55.9585 18.1918C55.7205 17.5622 55.5301 17.0658 55.3873 16.7026ZM75.02 26.0011C75.02 29.028 76.2218 30.5414 78.6255 30.5414C79.1729 30.5414 79.6846 30.4688 80.1606 30.3235C80.6365 30.1782 81.0411 30.0087 81.3743 29.815V21.1703C81.1125 21.1218 80.8031 21.0855 80.4461 21.0613C80.0892 21.0129 79.6727 20.9886 79.1967 20.9886C77.7926 20.9886 76.7454 21.4608 76.0552 22.4052C75.3651 23.3496 75.02 24.5482 75.02 26.0011ZM86.6933 33.7741C86.6933 36.8978 85.908 39.2104 84.3373 40.7117C82.7903 42.2372 80.3866 43 77.1262 43C75.9839 43 74.8415 42.891 73.6992 42.6731C72.5568 42.4794 71.4978 42.213 70.522 41.874L71.4502 37.3337C72.2831 37.6727 73.1518 37.9391 74.0561 38.1328C74.9843 38.3265 76.0314 38.4234 77.1976 38.4234C78.7207 38.4234 79.7917 38.0844 80.4104 37.4064C81.053 36.7283 81.3743 35.8566 81.3743 34.7911V34.101C80.8031 34.3674 80.2082 34.5732 79.5894 34.7185C78.9944 34.8396 78.3399 34.9001 77.626 34.9001C75.0319 34.9001 73.0447 34.1252 71.6644 32.5755C70.284 31.0015 69.5939 28.8101 69.5939 26.0011C69.5939 24.5967 69.808 23.3254 70.2364 22.1873C70.6648 21.025 71.2836 20.0322 72.0927 19.2089C72.9257 18.3855 73.9371 17.756 75.1271 17.3201C76.317 16.86 77.6617 16.63 79.161 16.63C79.8036 16.63 80.458 16.6663 81.1244 16.7389C81.8146 16.7874 82.4928 16.86 83.1592 16.9569C83.8256 17.0537 84.4562 17.1748 85.0512 17.3201C85.67 17.4412 86.2174 17.5743 86.6933 17.7196V33.7741ZM109.246 26.5823C109.246 28.0836 109.032 29.4639 108.604 30.723C108.175 31.958 107.557 33.0235 106.747 33.9194C105.938 34.7911 104.962 35.4692 103.82 35.9535C102.702 36.4378 101.44 36.6799 100.036 36.6799C98.6558 36.6799 97.3944 36.4378 96.2521 35.9535C95.1335 35.4692 94.1697 34.7911 93.3605 33.9194C92.5508 33.0235 91.9202 31.958 91.468 30.723C91.0158 29.4639 90.7897 28.0836 90.7897 26.5823C90.7897 25.081 91.0158 23.7128 91.468 22.4779C91.944 21.2429 92.5865 20.1896 93.3962 19.3178C94.2292 18.4461 95.2049 17.7681 96.3235 17.2838C97.4658 16.7995 98.7034 16.5573 100.036 16.5573C101.393 16.5573 102.63 16.7995 103.749 17.2838C104.891 17.7681 105.867 18.4461 106.676 19.3178C107.485 20.1896 108.116 21.2429 108.568 22.4779C109.02 23.7128 109.246 25.081 109.246 26.5823ZM103.82 26.5823C103.82 24.9115 103.487 23.6039 102.821 22.6595C102.178 21.6909 101.25 21.2066 100.036 21.2066C98.8223 21.2066 97.8823 21.6909 97.2159 22.6595C96.5495 23.6039 96.2164 24.9115 96.2164 26.5823C96.2164 28.2531 96.5495 29.5849 97.2159 30.5778C97.8823 31.5463 98.8223 32.0306 100.036 32.0306C101.25 32.0306 102.178 31.5463 102.821 30.5778C103.487 29.5849 103.82 28.2531 103.82 26.5823ZM124.683 21.8604C124.207 21.7393 123.648 21.6182 123.005 21.4972C122.362 21.3519 121.672 21.2792 120.934 21.2792C120.601 21.2792 120.197 21.3155 119.721 21.3882C119.269 21.4366 118.923 21.4972 118.685 21.5698V36.1714H113.366V18.0829C114.318 17.7439 115.437 17.4291 116.722 17.1385C118.031 16.8237 119.483 16.6663 121.077 16.6663C121.363 16.6663 121.708 16.6905 122.113 16.7389C122.517 16.7631 122.922 16.8116 123.326 16.8842C123.731 16.9327 124.135 17.0053 124.54 17.1022C124.945 17.1748 125.29 17.2717 125.575 17.3927L124.683 21.8604ZM135.253 32.3939C135.777 32.3939 136.277 32.3818 136.753 32.3575C137.229 32.3333 137.61 32.297 137.895 32.2486V28.1442C137.681 28.0957 137.36 28.0473 136.931 27.9989C136.503 27.9504 136.11 27.9262 135.753 27.9262C135.253 27.9262 134.777 27.9625 134.325 28.0352C133.897 28.0836 133.516 28.1926 133.183 28.3621C132.85 28.5316 132.588 28.7616 132.398 29.0522C132.207 29.3428 132.112 29.706 132.112 30.1419C132.112 30.9894 132.386 31.5827 132.933 31.9217C133.504 32.2365 134.278 32.3939 135.253 32.3939ZM134.825 16.5573C136.396 16.5573 137.705 16.7389 138.752 17.1022C139.799 17.4654 140.632 17.986 141.251 18.664C141.893 19.342 142.346 20.1653 142.607 21.1339C142.869 22.1025 143 23.1801 143 24.3666V35.6266C142.238 35.7961 141.179 35.9898 139.823 36.2077C138.466 36.4499 136.824 36.5709 134.896 36.5709C133.683 36.5709 132.576 36.462 131.577 36.244C130.601 36.0261 129.756 35.675 129.042 35.1907C128.328 34.6822 127.781 34.0284 127.4 33.2293C127.019 32.4302 126.829 31.4495 126.829 30.2872C126.829 29.1733 127.043 28.2289 127.471 27.454C127.923 26.6792 128.518 26.0617 129.256 25.6016C129.994 25.1415 130.839 24.8146 131.791 24.6209C132.743 24.403 133.73 24.294 134.754 24.294C135.444 24.294 136.051 24.3303 136.574 24.403C137.122 24.4514 137.562 24.524 137.895 24.6209V24.1124C137.895 23.1922 137.621 22.4536 137.074 21.8967C136.527 21.3398 135.575 21.0613 134.218 21.0613C133.314 21.0613 132.421 21.1339 131.541 21.2792C130.66 21.4003 129.899 21.5819 129.256 21.8241L128.578 17.4654C128.887 17.3685 129.268 17.2717 129.72 17.1748C130.196 17.0537 130.708 16.9569 131.255 16.8842C131.803 16.7874 132.374 16.7147 132.969 16.6663C133.588 16.5936 134.206 16.5573 134.825 16.5573Z" fill="#657172"/>
</svg>
