<svg width="37" height="37" viewBox="0 0 37 37" fill="none" xmlns="http://www.w3.org/2000/svg">
<path d="M17.0751 0.728804L36.9381 35.8004C37.1129 36.11 36.8968 36.5 36.552 36.5H28.103C25.2568 36.5 22.6195 34.9549 21.1526 32.4284L12.1792 16.9749C10.3918 13.8948 10.4573 10.0296 12.3516 7.01739L16.3126 0.711189C16.4947 0.421798 16.9051 0.431864 17.0727 0.728804H17.0751Z" fill="#657172"/>
<path d="M14.5081 22.1563C14.5785 22.0028 14.4862 21.8216 14.3235 21.7964C8.49745 20.888 5.09264 22.2771 2.82681 24.2474C1.61497 25.2993 0 27.7906 0 30.1082C0 33.6388 2.81953 36.5 6.29719 36.5C9.77486 36.5 12.5944 33.6388 12.5944 30.1082C12.5944 30.0176 12.592 29.9295 12.5871 29.8415H12.5944C12.5944 27.8082 13.3083 24.7583 14.5056 22.1588L14.5081 22.1563Z" fill="#657172"/>
</svg>
