<svg width="34" height="34" viewBox="0 0 34 34" fill="none" xmlns="http://www.w3.org/2000/svg">
<path d="M23.7608 14.5385V7.15385C23.7608 5.52174 23.0486 3.95649 21.7808 2.80242C20.5131 1.64835 18.7937 1 17.0008 1C15.2079 1 13.4885 1.64835 12.2208 2.80242C10.953 3.95649 10.2408 5.52174 10.2408 7.15385V14.5385M30.7118 11.2679L32.9886 30.9602C33.1148 32.0515 32.1774 33 30.9714 33H3.03017C2.74572 33.0003 2.46439 32.9461 2.20446 32.8409C1.94452 32.7358 1.71179 32.582 1.52138 32.3897C1.33098 32.1973 1.18715 31.9706 1.09925 31.7243C1.01136 31.4781 0.981351 31.2177 1.01119 30.9602L3.28975 11.2679C3.34231 10.8143 3.5775 10.3944 3.94998 10.0892C4.32245 9.7841 4.80584 9.6153 5.30693 9.61538H28.6947C29.733 9.61538 30.6037 10.3292 30.7118 11.2679ZM10.9168 14.5385C10.9168 14.7017 10.8456 14.8582 10.7188 14.9736C10.592 15.089 10.4201 15.1538 10.2408 15.1538C10.0615 15.1538 9.88959 15.089 9.76281 14.9736C9.63604 14.8582 9.56482 14.7017 9.56482 14.5385C9.56482 14.3753 9.63604 14.2187 9.76281 14.1033C9.88959 13.9879 10.0615 13.9231 10.2408 13.9231C10.4201 13.9231 10.592 13.9879 10.7188 14.1033C10.8456 14.2187 10.9168 14.3753 10.9168 14.5385ZM24.4368 14.5385C24.4368 14.7017 24.3656 14.8582 24.2388 14.9736C24.112 15.089 23.9401 15.1538 23.7608 15.1538C23.5815 15.1538 23.4095 15.089 23.2828 14.9736C23.156 14.8582 23.0848 14.7017 23.0848 14.5385C23.0848 14.3753 23.156 14.2187 23.2828 14.1033C23.4095 13.9879 23.5815 13.9231 23.7608 13.9231C23.9401 13.9231 24.112 13.9879 24.2388 14.1033C24.3656 14.2187 24.4368 14.3753 24.4368 14.5385Z" stroke="#FFFFFF" stroke-width="2.5" stroke-linecap="round" stroke-linejoin="round"/>
</svg>
