<svg width="34" height="34" viewBox="0 0 34 34" fill="none" xmlns="http://www.w3.org/2000/svg">
<path d="M26.8238 32.3921C25.4158 32.8081 23.7518 33.0001 21.7998 33.0001H12.1998C10.2478 33.0001 8.58378 32.8081 7.17578 32.3921C7.52778 28.2321 11.7998 24.952 16.9998 24.952C22.1998 24.952 26.4718 28.2321 26.8238 32.3921Z" stroke="#657172" stroke-width="2" stroke-linecap="round" stroke-linejoin="round"/>
<path d="M21.8 1H12.2C4.2 1 1 4.2 1 12.2V21.8C1 27.848 2.824 31.16 7.176 32.392C7.528 28.232 11.8 24.9519 17 24.9519C22.2 24.9519 26.472 28.232 26.824 32.392C31.176 31.16 33 27.848 33 21.8V12.2C33 4.2 29.8 1 21.8 1ZM17 20.472C13.832 20.472 11.272 17.896 11.272 14.728C11.272 11.56 13.832 9 17 9C20.168 9 22.728 11.56 22.728 14.728C22.728 17.896 20.168 20.472 17 20.472Z" stroke="#657172" stroke-width="2" stroke-linecap="round" stroke-linejoin="round"/>
<path d="M22.7281 14.728C22.7281 17.896 20.1681 20.472 17.0001 20.472C13.8321 20.472 11.2721 17.896 11.2721 14.728C11.2721 11.56 13.8321 9 17.0001 9C20.1681 9 22.7281 11.56 22.7281 14.728Z" stroke="#657172" stroke-width="2" stroke-linecap="round" stroke-linejoin="round"/>
</svg>
